<svg xmlns="http://www.w3.org/2000/svg" width="254" height="110" viewBox="0 0 254 110"><title>404</title><path d="M66.05,68.24H78.18V85.37H66.05v23.16H44.82V85.37H1L0,72,44.6,1.47H66.05Zm-44.89,0H44.82V30.44l-1.4,2.43Zm142-4q0,22.21-9.18,34T127.07,110q-17.49,0-26.74-11.54T90.85,65.37V45.66q0-22.43,9.26-34T126.93,0q17.49,0,26.74,11.54t9.48,33ZM141.92,42.65q0-13.31-3.67-19.34t-11.31-6.1q-7.5,0-11.1,5.81t-3.75,18v26q0,13.09,3.53,19.49t11.46,6.32q7.79,0,11.24-6.1t3.6-18.68Zm100,25.59H254V85.37H241.88v23.16H220.64V85.37H176.78l-1-13.38,44.6-70.51h21.45Zm-44.89,0h23.66V30.44l-1.4,2.43Z" fill="#187dc1"/></svg>