<svg xmlns="http://www.w3.org/2000/svg" width="49.42" height="60" viewBox="0 0 49.42 60"><title>uspp-logo</title><path d="M6.08,47.68s-1.34,1.89-2.92,1.89S0,48.79,0,47.68v10.5C0,59.21,1.34,60,3.08,60s3-.79,3-1.82c0,1,1.42,1.82,3.08,1.82s3.08-.79,3.08-1.82c0,1,1.34,1.82,3,1.82s3.16-.79,3.16-1.82c-.16,1,1.18,1.82,2.92,1.82s3-.79,3-1.82c0,1,1.42,1.82,3.16,1.82a4.3,4.3,0,0,0,3-1.82s1.34,1.82,3,1.82,3.16-1.82,3.16-1.82a4.3,4.3,0,0,0,3,1.82c1.74,0,3-.79,3-1.82V47.68c0,1-1.34,1.89-3,1.89s-3.08-1.89-3.08-1.89-1.34,1.89-3.08,1.89-3-1.89-3-1.89-1.42,1.89-3.16,1.89-3-1.89-3-1.89-1.34,1.89-3,1.89-3.16-1.89-3.16-1.89-1.26,1.89-3,1.89-3.08-1.89-3.08-1.89-1.34,1.89-3,1.89S6,47.68,6,47.68Z" fill="#157ac3"/><path d="M11.45,50.76h2.21v.16a.87.87,0,0,0-.55.24,4,4,0,0,0-.55,1l-2.05,4a3.16,3.16,0,0,1-.79,1.18,1.58,1.58,0,0,1-.87.24,1.11,1.11,0,0,1-1.11-1A.67.67,0,0,1,8.45,56h0a.47.47,0,0,1,.39.08,1,1,0,0,1,.16.47q0,.47.32.47t.63-.63l.16-.24L7.74,51.87a2.29,2.29,0,0,0-.55-.79A1.26,1.26,0,0,0,6.55,51v-.24H9.79v.16H9.71q-.55,0-.55.32a.79.79,0,0,0,.08.24l1.58,3,1.34-2.37a1.89,1.89,0,0,0,.24-.79.32.32,0,0,0-.16-.24,1.74,1.74,0,0,0-.79-.16Zm8.92-.16v2.29h-.16a2.37,2.37,0,0,0-.79-1.34,2.05,2.05,0,0,0-1.34-.47A2,2,0,0,0,17,51.4a2.05,2.05,0,0,0-.79,1,4.18,4.18,0,0,0-.32,1.58,5.53,5.53,0,0,0,.24,1.58,2.13,2.13,0,0,0,.71,1.18A2,2,0,0,0,18,57a2.37,2.37,0,0,0,1.11-.24,4,4,0,0,0,1.11-1v.55a3.63,3.63,0,0,1-1.11.79,3.47,3.47,0,0,1-1.42.32,4,4,0,0,1-1.89-.39,3,3,0,0,1-1.26-1.26,3.39,3.39,0,0,1-.39-1.66A3.55,3.55,0,0,1,15.95,51a3.63,3.63,0,0,1,1.74-.39,4,4,0,0,1,1.5.24,2.29,2.29,0,0,0,.55.24.39.39,0,0,0,.32-.16.63.63,0,0,0,.08-.32ZM25,57.39v-.24h.24a.92.92,0,0,0,.63-.16,1.66,1.66,0,0,0,.08-.79v-5H23.61v5a1.26,1.26,0,0,0,.16.79.79.79,0,0,0,.63.16h.16v.16h-3.4v-.16h.16a.79.79,0,0,0,.55-.16,1.42,1.42,0,0,0,.16-.79V51.87a1.5,1.5,0,0,0-.16-.79q-.08-.16-.55-.16h-.24v-.16h7.34v.16h-.16a.79.79,0,0,0-.55.24,1.34,1.34,0,0,0-.16.79v4.34a1.26,1.26,0,0,0,.16.79.87.87,0,0,0,.55.16h.24v.16Zm7.74,0v-.24H33q.47,0,.55-.16a1.66,1.66,0,0,0,.16-.79v-5H31.34v5a1.26,1.26,0,0,0,.16.79.79.79,0,0,0,.63.16h.16v.16h-3.4v-.16H29a.79.79,0,0,0,.63-.16,1.42,1.42,0,0,0,.08-.79V51.87a1.5,1.5,0,0,0-.08-.79.92.92,0,0,0-.63-.16h-.16v-.16h7.34v.16H36a.79.79,0,0,0-.55.24,1.34,1.34,0,0,0-.16.79v4.34a1.26,1.26,0,0,0,.16.79.87.87,0,0,0,.63.16h.16v.16Z" fill="#fffffe"/><path d="M15,38.29c.87,1.58,2.68,4,5.13,4.66V34.58a54.79,54.79,0,0,0-6.55.55A20.37,20.37,0,0,0,15,38.29Zm-3.79-2.76A21.47,21.47,0,0,0,6.63,37a19,19,0,0,0,9.32,6.24A18.24,18.24,0,0,1,11.21,35.53ZM9.47,26.21H2.37a19,19,0,0,0,2.84,8.68,22.89,22.89,0,0,1,5.29-1.66,33,33,0,0,1-.95-7.11Zm1-9.55A22.89,22.89,0,0,1,5.21,15a19,19,0,0,0-2.76,8.92h7.1a33.08,33.08,0,0,1,.95-7.11Zm1.34,7.18h8.37V17.68a55.5,55.5,0,0,1-7.34-.55,30.55,30.55,0,0,0-.95,6.71ZM15,11.68a20.37,20.37,0,0,0-1.5,3.16,54.79,54.79,0,0,0,6.63.47V7.11C17.76,7.74,16,10.19,15,11.77ZM12.87,32.76a55.5,55.5,0,0,1,7.34-.55v-6H11.84a30.47,30.47,0,0,0,.95,6.55Zm17.92-6.55H22.66v6a55.5,55.5,0,0,1,7.34.55,30.47,30.47,0,0,0,1-6.55Zm-1.58,8.92a54.79,54.79,0,0,0-6.63-.55v8.37c2.45-.63,4.26-3.16,5.13-4.74A20.37,20.37,0,0,0,29.21,35Zm.71-18a55.5,55.5,0,0,1-7.34.55v6.16h8.21a30.55,30.55,0,0,0-1-6.71Zm-2.21-5.45c-.87-1.58-2.68-4-5.13-4.74v8.37a54.79,54.79,0,0,0,6.63-.47A20.37,20.37,0,0,0,27.71,11.68Zm3.87,2.68a21.47,21.47,0,0,0,4.58-1.42A19,19,0,0,0,26.77,6.7a18.24,18.24,0,0,1,4.81,7.67Zm1.58,9.47h7.11a19,19,0,0,0-2.76-8.92,22.89,22.89,0,0,1-5.29,1.74,33.08,33.08,0,0,1,1,7.11Zm-1,9.32A22.89,22.89,0,0,1,37.5,35a19,19,0,0,0,2.84-8.76h-7.1a33.08,33.08,0,0,1-1,7Zm-5.37,10a19,19,0,0,0,9.32-6.32,21.47,21.47,0,0,0-4.58-1.34,18.24,18.24,0,0,1-4.74,7.69ZM6.63,12.95a21.47,21.47,0,0,0,4.58,1.42,18.24,18.24,0,0,1,4.74-7.66A19,19,0,0,0,9.87,9.87l1.18,3.32-2.84-2A19,19,0,0,0,6.63,13Z" fill="#dadada"/><path d="M4.18,10.82,6.71,9l3.24,2.53L8.29,7.89l6-2-6.63.24-.95-3-.95,3H2.68L5.13,7.89Z" fill="#dadada"/><path d="M20.13,38.76h3.79L14.29,27.55,38.76,0H35.61L10.11,27.55Z" fill="#187dc1"/><path d="M18.63,38.76,9,27.55,34,0H30.32L4.82,27.55l10.1,11.21Z" fill="#187dc1"/><path d="M25.5,38.76h3.16L19.11,27.55,44.13,0H40.34L15.39,27.55Z" fill="#187dc1"/><path d="M49.42,0h-4L20,27.63,31.89,40.34H9.47c2.21-5.37,0-5.76-1.58-5.76-1.18,0-3.32,1-2.61,2.61,2.13-1.5,2.84.16,2.05,2L3.63,44H38.68L24.39,27.63Z" fill="#187dc1"/></svg>