<svg xmlns="http://www.w3.org/2000/svg" width="62.6" height="76" viewBox="0 0 62.6 76"><path fill="#157ac3" d="M7.7 60.4S6 62.8 4 62.8 0 61.8 0 60.4v13.3C0 75 1.7 76 3.9 76s3.8-1 3.8-2.3c0 1.3 1.8 2.3 3.9 2.3s3.9-1 3.9-2.3c0 1.3 1.7 2.3 3.8 2.3s4-1 4-2.3C23.1 75 24.8 76 27 76s3.8-1 3.8-2.3c0 1.3 1.8 2.3 4 2.3s3.8-2.3 3.8-2.3 1.7 2.3 3.8 2.3 4-2.3 4-2.3S48 76 50.2 76s3.8-1 3.8-2.3V60.4c0 1.3-1.7 2.4-3.8 2.4s-3.9-2.4-3.9-2.4-1.7 2.4-3.9 2.4-3.8-2.4-3.8-2.4-1.8 2.4-4 2.4-3.8-2.4-3.8-2.4-1.7 2.4-3.8 2.4-4-2.4-4-2.4-1.6 2.4-3.8 2.4-3.9-2.4-3.9-2.4-1.7 2.4-3.8 2.4-3.9-2.4-3.9-2.4z"/><path fill="#fffffe" d="M14.5 64.3h2.8v.2a1.1 1.1 0 0 0-.7.3 5.1 5.1 0 0 0-.7 1.2l-2.6 5.1a4 4 0 0 1-1 1.5 2 2 0 0 1-1.1.3 1.3 1.3 0 0 1-1-.4 1.2 1.2 0 0 1-.4-.8.8.8 0 0 1 .3-.6.8.8 0 0 1 .6-.2.6.6 0 0 1 .5.1 1.2 1.2 0 0 1 .2.6q0 .6.4.6t.8-.8l.2-.3-3-5.4a2.9 2.9 0 0 0-.7-1 1.6 1.6 0 0 0-.8-.1v-.3h4.1v.2h-.1q-.7 0-.7.4a1 1 0 0 0 .1.3l2 3.8 1.7-3a2.4 2.4 0 0 0 .3-1 .4.4 0 0 0-.2-.3 2.2 2.2 0 0 0-1-.2zM25.8 64.1V67h-.2a3 3 0 0 0-1-1.7 2.6 2.6 0 0 0-1.7-.6 2.5 2.5 0 0 0-1.4.4 2.6 2.6 0 0 0-1 1.2 5.3 5.3 0 0 0-.4 2 7 7 0 0 0 .3 2 2.7 2.7 0 0 0 .9 1.5 2.5 2.5 0 0 0 1.5.4 3 3 0 0 0 1.4-.3 5 5 0 0 0 1.4-1.2v.7a4.6 4.6 0 0 1-1.4 1 4.4 4.4 0 0 1-1.8.4 5.1 5.1 0 0 1-2.4-.5 3.8 3.8 0 0 1-1.6-1.6 4.3 4.3 0 0 1-.5-2.1 4.5 4.5 0 0 1 2.3-4 4.6 4.6 0 0 1 2.2-.5 5.1 5.1 0 0 1 1.9.3 2.9 2.9 0 0 0 .7.3.5.5 0 0 0 .4-.2.8.8 0 0 0 .1-.4zM31.7 72.7v-.3h.3q.6 0 .8-.2a2.1 2.1 0 0 0 .1-1v-6.4h-3v6.4a1.6 1.6 0 0 0 .2 1 1 1 0 0 0 .8.2h.2v.2h-4.3v-.2h.2a1 1 0 0 0 .7-.2 1.8 1.8 0 0 0 .2-1v-5.5a1.9 1.9 0 0 0-.2-1q-.1-.2-.7-.2h-.3v-.2H36v.2h-.2a1 1 0 0 0-.7.3 1.7 1.7 0 0 0-.2 1v5.5a1.6 1.6 0 0 0 .2 1 1.1 1.1 0 0 0 .7.2h.3v.2zM41.5 72.7v-.3h.3q.6 0 .7-.2a2.1 2.1 0 0 0 .2-1v-6.4h-3v6.4a1.6 1.6 0 0 0 .2 1 1 1 0 0 0 .8.2h.2v.2h-4.3v-.2h.2a1 1 0 0 0 .8-.2 1.8 1.8 0 0 0 .1-1v-5.5a1.9 1.9 0 0 0-.1-1q-.2-.2-.8-.2h-.2v-.2h9.3v.2h-.3a1 1 0 0 0-.7.3 1.7 1.7 0 0 0-.2 1v5.5a1.6 1.6 0 0 0 .2 1 1.1 1.1 0 0 0 .8.2h.2v.2z"/><path fill="#f0f1f2" d="M19 48.5c1.1 2 3.4 5 6.5 5.9V43.8a69.4 69.4 0 0 0-8.3.7 25.8 25.8 0 0 0 1.8 4zM14.2 45a27.2 27.2 0 0 0-5.8 1.8 24.1 24.1 0 0 0 11.8 7.9 23.1 23.1 0 0 1-6-9.7zM12 33.2H3a24 24 0 0 0 3.6 11 29 29 0 0 1 6.7-2.1 41.8 41.8 0 0 1-1.2-9zM13.3 21.1A29 29 0 0 1 6.6 19a24 24 0 0 0-3.5 11.3h9a41.9 41.9 0 0 1 1.2-9zM15 30.2h10.6v-7.8a70.3 70.3 0 0 1-9.3-.7 38.7 38.7 0 0 0-1.2 8.5zM19 14.8a25.8 25.8 0 0 0-1.9 4 69.4 69.4 0 0 0 8.4.6V9c-3 .8-5.3 3.9-6.5 5.9zM16.3 41.5a70.3 70.3 0 0 1 9.3-.7v-7.6H15a38.6 38.6 0 0 0 1.2 8.3zM39 33.2H28.7v7.6a70.3 70.3 0 0 1 9.3.7 38.6 38.6 0 0 0 1.2-8.3zM37 44.5a69.4 69.4 0 0 0-8.4-.7v10.6c3.1-.8 5.4-4 6.5-6a25.8 25.8 0 0 0 1.9-4zM37.9 21.7a70.3 70.3 0 0 1-9.3.7v7.8H39a38.7 38.7 0 0 0-1.2-8.5zM35.1 14.8c-1.1-2-3.4-5.1-6.5-6v10.6a69.4 69.4 0 0 0 8.4-.6 25.8 25.8 0 0 0-1.9-4zM40 18.2a27.2 27.2 0 0 0 5.8-1.8 24.1 24.1 0 0 0-11.9-7.9 23.1 23.1 0 0 1 6.1 9.7zM42 30.2h9a24 24 0 0 0-3.5-11.3 29 29 0 0 1-6.7 2.2 41.9 41.9 0 0 1 1.3 9zM40.8 42a29 29 0 0 1 6.7 2.3 24 24 0 0 0 3.6-11.1h-9a41.9 41.9 0 0 1-1.3 8.9zM34 54.7a24.1 24.1 0 0 0 11.8-8A27.2 27.2 0 0 0 40 45a23.1 23.1 0 0 1-6 9.7zM8.4 16.4a27.2 27.2 0 0 0 5.8 1.8 23.1 23.1 0 0 1 6-9.7 24.1 24.1 0 0 0-7.7 4l1.5 4.2-3.6-2.5a24.1 24.1 0 0 0-2 2.3z"/><path fill="#f0f1f2" d="M5.3 13.7l3.2-2.3 4.1 3.2-2.1-4.6 7.6-2.6-8.4.3-1.2-3.8-1.2 3.8H3.4L6.5 10l-1.2 3.7z"/><path fill="#187dc1" d="M25.5 49.1h4.8L18.1 34.9 49.1 0h-4L12.8 34.9l12.7 14.2z"/><path fill="#187dc1" d="M23.6 49.1L11.4 34.9 43.1 0h-4.7L6.1 34.9l12.8 14.2h4.7z"/><path fill="#187dc1" d="M32.3 49.1h4L24.2 34.9 55.9 0h-4.8L19.5 34.9l12.8 14.2z"/><path fill="#187dc1" d="M62.6 0h-5.1L25.4 35l15 16.1H12c2.8-6.8 0-7.3-2-7.3-1.5 0-4.2 1.3-3.3 3.3 2.7-1.9 3.6.2 2.6 2.5l-4.7 6.2h44.4L30.9 35z"/></svg>