<svg xmlns="http://www.w3.org/2000/svg" width="585" height="76" viewBox="0 0 585 76"><g id="text"><path fill="#187DC1" d="M89.3 23.9l2.4-6.4h3L90 28.6l-.4.8a3.5 3.5 0 0 1-3.2 1.8h-1v-2.3a5 5 0 0 0 .7 0 1.9 1.9 0 0 0 1-.2 1.5 1.5 0 0 0 .6-.7l.3-.9-4.7-9.6h3zm11.5 1.6h-1.6V31h-2.8V17.5h2.8v5.4h1.3l3.3-5.4h3.4l-4.2 6.4 4.6 7.1h-3.3zm10.9.7V31h-2.8V17.5h5.2a6 6 0 0 1 2.7.5 4 4 0 0 1 1.8 1.6 4.4 4.4 0 0 1 .6 2.4A3.9 3.9 0 0 1 118 25a5.7 5.7 0 0 1-3.8 1.1zm0-2.2h2.4a2.4 2.4 0 0 0 1.7-.5 1.9 1.9 0 0 0 .6-1.5 2.2 2.2 0 0 0-.6-1.6 2.2 2.2 0 0 0-1.6-.6h-2.5zm15.6 4.2h-4.9l-.9 2.8h-3l5-13.5h2.6l5.1 13.5h-3zm-4.1-2.2h3.4l-1.7-5zm12.4 5h-2.8V17.5h2.8zm-2.3-15.6a1.1 1.1 0 0 1-.4.9 1.3 1.3 0 0 1-1 .3 1.3 1.3 0 0 1-.9-.4 1.1 1.1 0 0 1 0-1.6 1.4 1.4 0 0 1 1.9 0 1.1 1.1 0 0 1 .3.8zm1.9 0a1 1 0 0 1 .4-.8 1.3 1.3 0 0 1 .9-.3 1.3 1.3 0 0 1 .9.3 1 1 0 0 1 .4.8 1.1 1.1 0 0 1-.4.9 1.3 1.3 0 0 1-1 .3 1.3 1.3 0 0 1-.9-.3 1.1 1.1 0 0 1-.3-.9zM149.4 31h-2.8v-5.8h-5.4V31h-2.8V17.5h2.8V23h5.4v-5.5h2.8zm13.2-4.5a4.8 4.8 0 0 1-1.6 3.4 5.6 5.6 0 0 1-3.8 1.3 5.1 5.1 0 0 1-4.1-1.8 7.2 7.2 0 0 1-1.5-4.8v-.8a8.1 8.1 0 0 1 .7-3.4 5.1 5.1 0 0 1 2-2.3 6.1 6.1 0 0 1 6.7.5 5.1 5.1 0 0 1 1.7 3.5h-2.8a2.8 2.8 0 0 0-.7-2 2.7 2.7 0 0 0-2-.5 2.4 2.4 0 0 0-2 1 5.6 5.6 0 0 0-.7 3v1a6 6 0 0 0 .6 3.3 2.3 2.3 0 0 0 2.1 1 2.7 2.7 0 0 0 2-.6 2.7 2.7 0 0 0 .7-1.8zm4.8-4.1h2.2a5.7 5.7 0 0 1 3.8 1.1 3.8 3.8 0 0 1 1.4 3.1 4 4 0 0 1-1.4 3.2 5.5 5.5 0 0 1-3.7 1.2h-5V17.5h2.7zm0 2.2v4.2h2.2a2.4 2.4 0 0 0 1.7-.6 2 2 0 0 0 .7-1.6 1.8 1.8 0 0 0-.6-1.4 2.5 2.5 0 0 0-1.7-.6zm13.7.9h-1.6V31h-2.8V17.5h2.8v5.4h1.3l3.3-5.4h3.4l-4.2 6.4L188 31h-3.3zm16.2-8h2.8V31h-2.8v-9l-5.4 9H189V17.5h2.8v9zm13.5 0h2.8V31h-2.8v-9l-5.4 9h-2.8V17.5h2.8v9zm.5-3.6a2.5 2.5 0 0 1-.9 2 3.4 3.4 0 0 1-2.3.8 3.5 3.5 0 0 1-2.3-.8 2.5 2.5 0 0 1-.9-2h1.9a1.2 1.2 0 0 0 .3 1 1.4 1.4 0 0 0 1 .3 1.4 1.4 0 0 0 1-.3 1.2 1.2 0 0 0 .3-1zm20.4 12.6a4.8 4.8 0 0 1-1.6 3.4 5.6 5.6 0 0 1-3.8 1.3 5.1 5.1 0 0 1-4.1-1.8 7.2 7.2 0 0 1-1.5-4.8v-.8a8 8 0 0 1 .7-3.4 5.1 5.1 0 0 1 2-2.3 6.1 6.1 0 0 1 6.7.5 5.1 5.1 0 0 1 1.7 3.5H229a2.8 2.8 0 0 0-.7-2 2.7 2.7 0 0 0-2-.5 2.4 2.4 0 0 0-2 1 5.6 5.6 0 0 0-.7 3v1a6 6 0 0 0 .6 3.3 2.3 2.3 0 0 0 2.1 1 2.7 2.7 0 0 0 2-.6 2.7 2.7 0 0 0 .7-1.8zm13.1-2a8.2 8.2 0 0 1-.7 3.6 5.3 5.3 0 0 1-2 2.3 5.6 5.6 0 0 1-3 .8 5.6 5.6 0 0 1-3-.8 5.4 5.4 0 0 1-2-2.3 8 8 0 0 1-.7-3.5V24a8.1 8.1 0 0 1 .7-3.5 5.4 5.4 0 0 1 2-2.3 6 6 0 0 1 6 0 5.3 5.3 0 0 1 2 2.3 8 8 0 0 1 .7 3.5zM242 24a5.7 5.7 0 0 0-.8-3.2 2.7 2.7 0 0 0-4.3 0 5.6 5.6 0 0 0-.8 3.2v.7a5.8 5.8 0 0 0 .8 3.2 2.7 2.7 0 0 0 4.3 0 5.7 5.7 0 0 0 .8-3.2zm21 .7a8.2 8.2 0 0 1-.8 3.4 5.3 5.3 0 0 1-2 2.4 5.6 5.6 0 0 1-3 .8 5.8 5.8 0 0 1-2.7-.7 5.3 5.3 0 0 1-2-2 7 7 0 0 1-1-3H250V31h-2.8V17.5h2.8v6h1.5a7.7 7.7 0 0 1 .8-3.2 5.3 5.3 0 0 1 2-2.2 6 6 0 0 1 5.9 0 5.3 5.3 0 0 1 2 2.3 8 8 0 0 1 .7 3.5zm-2.9-.7a5.7 5.7 0 0 0-.8-3.2 2.7 2.7 0 0 0-4.3 0 5.6 5.6 0 0 0-.7 3.2v.7a5.8 5.8 0 0 0 .7 3.2 2.7 2.7 0 0 0 4.3 0 5.7 5.7 0 0 0 .8-3.2zm11.7-2.7a1.4 1.4 0 0 0-.6-1.2 2.6 2.6 0 0 0-1.6-.5 2.4 2.4 0 0 0-1.5.5 1.4 1.4 0 0 0-.6 1.1h-2.7a3.3 3.3 0 0 1 .6-2 4 4 0 0 1 1.7-1.3 6.2 6.2 0 0 1 2.5-.5 6 6 0 0 1 3.7 1 3.4 3.4 0 0 1 1.3 2.8 2.8 2.8 0 0 1-.5 1.7 3.7 3.7 0 0 1-1.6 1.2 3.5 3.5 0 0 1 1.7 1.2 3.2 3.2 0 0 1 .6 2 3.4 3.4 0 0 1-1.4 2.9 6.1 6.1 0 0 1-3.8 1 6.7 6.7 0 0 1-2.6-.4 4.1 4.1 0 0 1-1.8-1.4 3.5 3.5 0 0 1-.6-2h2.8a1.5 1.5 0 0 0 .6 1.2 2.6 2.6 0 0 0 1.6.5 2.8 2.8 0 0 0 1.8-.5 1.5 1.5 0 0 0 .6-1.3 1.8 1.8 0 0 0-.6-1.5 2.6 2.6 0 0 0-1.7-.4h-1.6V23h1.7q2 0 2-1.8zM293 31h-2.8V19.7h-5.4V31H282V17.5h11zm5.4-4.8V31h-2.8V17.5h5.3a6 6 0 0 1 2.7.5 4 4 0 0 1 1.8 1.6 4.4 4.4 0 0 1 .6 2.4 3.9 3.9 0 0 1-1.4 3.1 5.7 5.7 0 0 1-3.7 1.2zm0-2.2h2.5a2.4 2.4 0 0 0 1.7-.5 1.9 1.9 0 0 0 .6-1.5 2.2 2.2 0 0 0-.6-1.6 2.2 2.2 0 0 0-1.6-.6h-2.6zm20.8.6a8.2 8.2 0 0 1-.7 3.5 5.3 5.3 0 0 1-2 2.3 5.6 5.6 0 0 1-3 .8 5.6 5.6 0 0 1-3-.8 5.4 5.4 0 0 1-2-2.3 8 8 0 0 1-.7-3.5V24a8.1 8.1 0 0 1 .7-3.5 5.4 5.4 0 0 1 2-2.3 6 6 0 0 1 6 0 5.3 5.3 0 0 1 2 2.3 8 8 0 0 1 .7 3.5zm-2.8-.6a5.7 5.7 0 0 0-.8-3.3 2.7 2.7 0 0 0-4.3 0 5.6 5.6 0 0 0-.8 3.2v.7a5.8 5.8 0 0 0 .8 3.2 2.7 2.7 0 0 0 4.3 0 5.7 5.7 0 0 0 .8-3.2zm8.6-6.5l3.5 9.8 3.4-9.8h3.7V31h-2.8v-3.7l.3-6.4-3.7 10.1h-1.9L324 21l.3 6.3V31h-2.8V17.5zm21.3 0h2.8V31h-2.8v-9l-5.4 9H338V17.5h2.8v9zm16 9a4.8 4.8 0 0 1-1.6 3.4 5.6 5.6 0 0 1-3.8 1.3 5.1 5.1 0 0 1-4.1-1.8 7.2 7.2 0 0 1-1.5-4.8v-.8a8.1 8.1 0 0 1 .7-3.4 5.1 5.1 0 0 1 2-2.3 6.1 6.1 0 0 1 6.7.4 5.1 5.1 0 0 1 1.7 3.6h-2.8a2.8 2.8 0 0 0-.7-2 2.7 2.7 0 0 0-2-.5 2.4 2.4 0 0 0-2 1 5.6 5.6 0 0 0-.7 3v1a6 6 0 0 0 .6 3.3 2.3 2.3 0 0 0 2.1 1 2.7 2.7 0 0 0 2-.6 2.7 2.7 0 0 0 .7-1.8zm13-9V31h-2.8V19.7H369l-.2 4.8a14.9 14.9 0 0 1-.6 3.8 4 4 0 0 1-1.4 2 4.3 4.3 0 0 1-2.5.7h-.7v-2.2h.4a1.8 1.8 0 0 0 1.5-1.2 12.4 12.4 0 0 0 .6-3.9l.2-6.2zm13.7 7a8.1 8.1 0 0 1-.7 3.6 5.3 5.3 0 0 1-2 2.3 5.6 5.6 0 0 1-3 .8 5.6 5.6 0 0 1-3-.8 5.4 5.4 0 0 1-2-2.3 8 8 0 0 1-.7-3.5V24a8.1 8.1 0 0 1 .7-3.5 5.4 5.4 0 0 1 2-2.3 6 6 0 0 1 6 0 5.3 5.3 0 0 1 2 2.3 8 8 0 0 1 .7 3.5zm-2.8-.6a5.7 5.7 0 0 0-.8-3.2 2.7 2.7 0 0 0-4.3 0 5.6 5.6 0 0 0-.8 3.2v.7a5.8 5.8 0 0 0 .8 3.2 2.7 2.7 0 0 0 4.3 0 5.8 5.8 0 0 0 .8-3.2zm5 7.1V17.5h4.8a6.2 6.2 0 0 1 3.7 1 3.2 3.2 0 0 1 1.3 2.7 3 3 0 0 1-.5 1.7A3 3 0 0 1 399 24a2.8 2.8 0 0 1 1.6 1 3 3 0 0 1 .6 2 3.6 3.6 0 0 1-1.3 3 5.6 5.6 0 0 1-3.5 1zm2.8-5.9v3.7h2.4a2.3 2.3 0 0 0 1.5-.5 1.6 1.6 0 0 0 .6-1.3 1.7 1.7 0 0 0-2-1.9zm0-2h2q2.2 0 2.2-1.7a1.5 1.5 0 0 0-.6-1.3 2.8 2.8 0 0 0-1.7-.4H394zm9.4-5.6h2.8v11.3h5.4V17.5h2.8v11.3h1.9l-.2 5.5h-2.6V31h-10zM421.1 31h-2.7V17.5h2.7zm2.8 0V17.5h4.7a6.2 6.2 0 0 1 3.8 1 3.2 3.2 0 0 1 1.3 2.7 3 3 0 0 1-.6 1.7 3 3 0 0 1-1.4 1.1 2.8 2.8 0 0 1 1.6 1 3 3 0 0 1 .7 2 3.6 3.6 0 0 1-1.2 3 5.6 5.6 0 0 1-3.6 1zm2.8-5.9v3.7h2.4a2.3 2.3 0 0 0 1.5-.5 1.6 1.6 0 0 0 .6-1.3 1.7 1.7 0 0 0-2-1.9zm0-2h2q2.2 0 2.2-1.7a1.5 1.5 0 0 0-.6-1.3 2.8 2.8 0 0 0-1.7-.4h-1.9zm17.4 7.9h-2.8V17.5h2.8zm18.7 0H460V19.7h-5.4V31h-2.8V17.5h11zm5.6 0h-2.8V17.5h2.8zm15.5 3.3h-2.5V31h-8.2v3.3h-2.6l-.2-5.5h1a4.3 4.3 0 0 0 1.3-2 13.8 13.8 0 0 0 .6-3.3l.4-6h8.9v11.3h1.5zm-9.3-5.5h5.2v-9h-3.4l-.3 3.5a12 12 0 0 1-1.5 5.5zm22.2 2.2H494V19.7h-5.4V31h-2.8V17.5h11zm5.4-4.8V31h-2.7V17.5h5.2a6 6 0 0 1 2.7.5 4 4 0 0 1 1.8 1.6 4.4 4.4 0 0 1 .6 2.4 3.9 3.9 0 0 1-1.4 3.1 5.7 5.7 0 0 1-3.7 1.2zm0-2.2h2.5a2.4 2.4 0 0 0 1.7-.5 1.9 1.9 0 0 0 .6-1.5 2.2 2.2 0 0 0-.6-1.6 2.2 2.2 0 0 0-1.6-.6h-2.5zm17.8-6.5h2.8V31H520v-9l-5.4 9h-2.8V17.5h2.8v9zm16 9a4.8 4.8 0 0 1-1.6 3.4 5.6 5.6 0 0 1-3.8 1.3 5.1 5.1 0 0 1-4-1.8 7 7 0 0 1-1.6-4.6v-1a8.1 8.1 0 0 1 .7-3.5 5.1 5.1 0 0 1 2-2.2 6.1 6.1 0 0 1 6.7.4 5.1 5.1 0 0 1 1.6 3.6h-2.8a2.9 2.9 0 0 0-.7-2 2.6 2.6 0 0 0-2-.5 2.4 2.4 0 0 0-2 .8 4.8 4.8 0 0 0-.7 2.7h4.2v2.3h-4.2a5.1 5.1 0 0 0 .7 2.7 2.4 2.4 0 0 0 2 .9 2.7 2.7 0 0 0 2-.6 2.7 2.7 0 0 0 .7-1.9zm5.8-9l3.4 9.8 3.5-9.8h3.6V31h-2.8v-3.7l.3-6.4-3.6 10.1h-2l-3.6-10 .3 6.3V31h-2.8V17.5zm13 0h2.8v11.3h5.4V17.5h2.8v11.3h1.8l-.1 5.5h-2.6V31h-10zM572.5 31h-2.8V17.5h2.8zm2.8 0V17.5h4.7a6.2 6.2 0 0 1 3.7 1 3.2 3.2 0 0 1 1.3 2.7 3 3 0 0 1-.5 1.7A3 3 0 0 1 583 24a2.8 2.8 0 0 1 1.6 1 3 3 0 0 1 .6 2 3.6 3.6 0 0 1-1.2 3 5.6 5.6 0 0 1-3.6 1zm2.8-5.9v3.7h2.4a2.3 2.3 0 0 0 1.5-.5 1.6 1.6 0 0 0 .6-1.3 1.7 1.7 0 0 0-2-1.9zm0-2h2q2.2 0 2.2-1.7a1.5 1.5 0 0 0-.6-1.3 2.8 2.8 0 0 0-1.7-.4h-1.9z" transform="translate(-.4)"/><path fill="#adadad" d="M84 59V49h3.4a4.2 4.2 0 0 1 2.6.7 2.4 2.4 0 0 1 .9 2 2.1 2.1 0 0 1-.4 1.3 2.4 2.4 0 0 1-1 .8 2.2 2.2 0 0 1 1.2.9A2.4 2.4 0 0 1 91 56a2.6 2.6 0 0 1-.9 2.2 3.9 3.9 0 0 1-2.6.7zm1.7-4.5v3.1h2a1.9 1.9 0 0 0 1.2-.4 1.6 1.6 0 0 0-1.1-2.7zm0-1.3h1.7a2 2 0 0 0 1.3-.3 1.5 1.5 0 0 0 0-2.1 2.1 2.1 0 0 0-1.3-.4h-1.7zM97.5 59a2.6 2.6 0 0 1-.2-.7 2.8 2.8 0 0 1-3.7.2 2 2 0 0 1-.7-1.6 2 2 0 0 1 .8-1.8 4.3 4.3 0 0 1 2.6-.6h1V54a1.3 1.3 0 0 0-.4-1 1.3 1.3 0 0 0-1-.3 1.4 1.4 0 0 0-.9.3.9.9 0 0 0-.4.7H93a1.8 1.8 0 0 1 .4-1.1 2.7 2.7 0 0 1 1-.8 3.9 3.9 0 0 1 1.6-.3 3 3 0 0 1 2.1.6A2.3 2.3 0 0 1 99 54v3.3a3.8 3.8 0 0 0 .3 1.6v.1zm-1.8-1.2a1.9 1.9 0 0 0 1-.2 1.6 1.6 0 0 0 .6-.7v-1.4h-1a2.5 2.5 0 0 0-1.3.4 1 1 0 0 0-.5.9 1 1 0 0 0 .3.7 1.3 1.3 0 0 0 .9.3zm7.1-6.2v6h2.3v-6h1.7v6h2.3v-6h1.7V59h-9.6v-7.4zm20.4 7.4h-1.7v-3h-2.9v3H117v-7.4h1.7v3h2.8v-3h1.7zm6.6 0a2.6 2.6 0 0 1-.2-.7 2.8 2.8 0 0 1-3.8.2 2 2 0 0 1-.7-1.6 2 2 0 0 1 .9-1.8 4.3 4.3 0 0 1 2.5-.6h1V54a1.3 1.3 0 0 0-.3-1 1.3 1.3 0 0 0-1-.3 1.4 1.4 0 0 0-1 .3.9.9 0 0 0-.3.7h-1.7a1.8 1.8 0 0 1 .4-1 2.7 2.7 0 0 1 1.1-1 3.9 3.9 0 0 1 1.6-.2 3 3 0 0 1 2 .6 2.3 2.3 0 0 1 .8 1.9v3.3a3.8 3.8 0 0 0 .3 1.6v.1zm-1.9-1.2a1.9 1.9 0 0 0 1-.2 1.6 1.6 0 0 0 .6-.7v-1.4h-.9a2.4 2.4 0 0 0-1.4.4 1 1 0 0 0-.4.9 1 1 0 0 0 .3.7 1.3 1.3 0 0 0 .9.3zm5.5-.1a4.3 4.3 0 0 0 .9-1.5 6.4 6.4 0 0 0 .3-1.8v-2.8h5.2v6h1v3.6h-1.6V59h-4.8v2.2h-1.7v-3.5zm2 0h2.8V53h-1.9v1.4a6 6 0 0 1-1 3.3zm8.8 1.3h-1.6v-7.4h1.6zm-1.7-9.3a.9.9 0 0 1 .2-.7 1 1 0 0 1 1.4 0 1 1 0 0 1 0 1.3 1.1 1.1 0 0 1-1.4 0 .9.9 0 0 1-.3-.6zm8.6 1.9h1.6V59h-1.6v-5l-3 5h-1.6v-7.4h1.7v5zm.8-2.8a1.8 1.8 0 0 1-.6 1.4 2.7 2.7 0 0 1-3.2 0 1.8 1.8 0 0 1-.6-1.4h1.2a1 1 0 0 0 .2.7 1 1 0 0 0 .8.2 1 1 0 0 0 .7-.2 1 1 0 0 0 .2-.7zm9.3 10.2h-1.7v-3h-2.9v3H155v-7.4h1.7v3h2.8v-3h1.7zm6.8-7.4h1.6V59H168v-5l-3 5h-1.6v-7.4h1.7v5zm8.5 0h1.6V59h-1.6v-5l-3 5H172v-7.4h1.6v5zm.7-2.8a1.8 1.8 0 0 1-.6 1.4 2.7 2.7 0 0 1-3.2 0 1.8 1.8 0 0 1-.6-1.4h1.3a1 1 0 0 0 .2.7 1 1 0 0 0 .7.2 1 1 0 0 0 .7-.2 1 1 0 0 0 .3-.7zM190.5 59h-1.7v-6h-2.9v6h-1.6v-7.4h6.2zm6.6 0a2.6 2.6 0 0 1-.2-.7 2.8 2.8 0 0 1-3.8.2 2 2 0 0 1-.7-1.6 2 2 0 0 1 1-1.8 4.3 4.3 0 0 1 2.4-.6h1V54a1.3 1.3 0 0 0-.3-1 1.3 1.3 0 0 0-1-.3 1.4 1.4 0 0 0-1 .3.9.9 0 0 0-.3.7h-1.6a1.8 1.8 0 0 1 .4-1 2.7 2.7 0 0 1 1-1 3.9 3.9 0 0 1 1.6-.2 3 3 0 0 1 2 .6 2.3 2.3 0 0 1 .9 1.9v3.3a3.8 3.8 0 0 0 .2 1.6v.1zm-1.8-1.2a1.9 1.9 0 0 0 .9-.2 1.6 1.6 0 0 0 .6-.7v-1.4h-.9a2.5 2.5 0 0 0-1.4.4 1 1 0 0 0-.4.9 1 1 0 0 0 .3.7 1.3 1.3 0 0 0 .8.3zm11.8-2.4a4.4 4.4 0 0 1-.7 2.7 2.7 2.7 0 0 1-4 .2v3.5h-1.7V51.6h1.5v.8a2.4 2.4 0 0 1 2-1 2.5 2.5 0 0 1 2.2 1 4.5 4.5 0 0 1 .8 2.9zm-1.6-.2a3 3 0 0 0-.5-1.7 1.4 1.4 0 0 0-1.2-.7 1.5 1.5 0 0 0-1.5.9v3.2a1.5 1.5 0 0 0 1.5.9 1.4 1.4 0 0 0 1.2-.6 3.4 3.4 0 0 0 .5-2zm9-2.3H212V59h-1.7v-6H208v-1.4h6.5zm7.8 6.1h-1.7v-3h-2.9v3h-1.6v-7.4h1.6v3h3v-3h1.6zm5.4.1a3.5 3.5 0 0 1-2.5-1 3.6 3.6 0 0 1-1-2.6v-.2a4.4 4.4 0 0 1 .4-2 3.3 3.3 0 0 1 1.2-1.4 3.2 3.2 0 0 1 1.7-.5 2.9 2.9 0 0 1 2.3 1 4 4 0 0 1 .9 2.8v.6h-4.9a2.2 2.2 0 0 0 .6 1.5 1.9 1.9 0 0 0 1.4.5 2.3 2.3 0 0 0 1.9-1l.9 1a3 3 0 0 1-1.2 1 3.7 3.7 0 0 1-1.7.3zm-.2-6.3a1.4 1.4 0 0 0-1 .5 2.5 2.5 0 0 0-.6 1.3h3.2v-.1a2 2 0 0 0-.5-1.3 1.4 1.4 0 0 0-1-.4zm11.4 2.6a4.4 4.4 0 0 1-.8 2.7 2.7 2.7 0 0 1-4 .2v3.5h-1.7V51.6h1.6v.8a2.4 2.4 0 0 1 2-1 2.5 2.5 0 0 1 2.2 1 4.5 4.5 0 0 1 .7 2.9zm-1.7-.2a3 3 0 0 0-.4-1.7 1.4 1.4 0 0 0-1.3-.7 1.5 1.5 0 0 0-1.4.9v3.2a1.5 1.5 0 0 0 1.4 1 1.4 1.4 0 0 0 1.3-.7 3.4 3.4 0 0 0 .4-2z" transform="translate(-.4)"/></g><g id="symbol"><path fill="#157ac3" d="M8 60.4s-1.6 2.4-3.8 2.4-3.9-1-3.9-2.4v13.3c0 1.3 1.8 2.3 4 2.3S8 75 8 73.7C8.1 75 9.8 76 12 76s3.9-1 3.9-2.3c0 1.3 1.7 2.3 3.8 2.3s3.9-1 3.9-2.3c0 1.3 1.7 2.3 3.8 2.3s3.9-1 3.9-2.3c0 1.3 1.7 2.3 3.9 2.3s3.8-2.3 3.8-2.3 1.8 2.3 3.9 2.3 3.9-2.3 3.9-2.3 1.7 2.3 3.8 2.3 3.9-1 3.9-2.3V60.4c0 1.3-1.7 2.4-3.9 2.4s-3.8-2.4-3.8-2.4-1.8 2.4-3.9 2.4-3.9-2.4-3.9-2.4-1.7 2.4-3.9 2.4-3.8-2.4-3.8-2.4-1.8 2.4-4 2.4-3.8-2.4-3.8-2.4-1.7 2.4-3.9 2.4-3.8-2.4-3.8-2.4-1.7 2.4-3.8 2.4-4-2.4-4-2.4z" transform="translate(-.4)"/><path fill="#fffffe" d="M14.9 64.3h2.7v.2a1.1 1.1 0 0 0-.7.3 5.1 5.1 0 0 0-.7 1.2l-2.6 5.1a4 4 0 0 1-1 1.5 2 2 0 0 1-1 .3 1.3 1.3 0 0 1-1-.4 1.2 1.2 0 0 1-.4-.8.8.8 0 0 1 .2-.6.8.8 0 0 1 .6-.2.6.6 0 0 1 .5.1 1.2 1.2 0 0 1 .2.6q.1.6.5.6t.8-.8l.1-.3-3-5.4a2.9 2.9 0 0 0-.6-1 1.6 1.6 0 0 0-.9-.1v-.3h4.2v.2h-.2q-.7 0-.7.4a1 1 0 0 0 .2.3l2 3.8 1.6-3a2.4 2.4 0 0 0 .3-1 .4.4 0 0 0-.2-.3 2.2 2.2 0 0 0-1-.2zM26.2 64.1V67h-.3a3 3 0 0 0-1-1.7 2.6 2.6 0 0 0-1.6-.6 2.5 2.5 0 0 0-1.5.4 2.6 2.6 0 0 0-1 1.2 5.3 5.3 0 0 0-.4 2 7 7 0 0 0 .3 2 2.7 2.7 0 0 0 1 1.5 2.5 2.5 0 0 0 1.5.4 3 3 0 0 0 1.4-.3 5 5 0 0 0 1.4-1.2v.8a4.6 4.6 0 0 1-1.5 1 4.4 4.4 0 0 1-1.7.3 5.1 5.1 0 0 1-2.4-.5 3.8 3.8 0 0 1-1.6-1.5 4.3 4.3 0 0 1-.6-2.2 4.5 4.5 0 0 1 2.3-3.9 4.6 4.6 0 0 1 2.3-.6 5.1 5.1 0 0 1 1.9.4 2.9 2.9 0 0 0 .7.2.5.5 0 0 0 .3-.1.8.8 0 0 0 .2-.5zM32 72.7v-.3h.3q.6 0 .8-.2a2.1 2.1 0 0 0 .1-1v-6.4h-3v6.4a1.6 1.6 0 0 0 .3 1 1 1 0 0 0 .7.2h.3v.2H27v-.2h.3a1 1 0 0 0 .7-.2 1.8 1.8 0 0 0 .2-1v-5.5a1.9 1.9 0 0 0-.2-1q-.2-.2-.7-.2H27v-.2h9.3v.2h-.2a1 1 0 0 0-.8.3 1.7 1.7 0 0 0-.1 1v5.5a1.6 1.6 0 0 0 .2 1 1.1 1.1 0 0 0 .7.2h.2v.2zM41.9 72.7v-.3h.2q.6 0 .8-.2a2.1 2.1 0 0 0 .1-1v-6.4h-3v6.4a1.6 1.6 0 0 0 .3 1 1 1 0 0 0 .7.2h.3v.2h-4.4v-.2h.3a1 1 0 0 0 .7-.2 1.8 1.8 0 0 0 .2-1v-5.5a1.9 1.9 0 0 0-.2-1q-.2-.2-.7-.2h-.3v-.2h9.3v.2H46a1 1 0 0 0-.8.3 1.7 1.7 0 0 0-.2 1v5.5a1.6 1.6 0 0 0 .3 1 1.1 1.1 0 0 0 .7.2h.2v.2z" transform="translate(-.4)"/><path fill="#f0f1f2" d="M19.4 48.5c1.1 2 3.4 5 6.5 5.9V43.8a69.4 69.4 0 0 0-8.3.7 25.8 25.8 0 0 0 1.8 4zM14.5 45a27.2 27.2 0 0 0-5.8 1.8 24.1 24.1 0 0 0 11.9 7.9 23.1 23.1 0 0 1-6-9.7zM12.4 33.2h-9a24 24 0 0 0 3.6 11 29 29 0 0 1 6.7-2.1 41.8 41.8 0 0 1-1.3-9zM13.7 21.1A29 29 0 0 1 7 19a24 24 0 0 0-3.6 11.3h9a41.9 41.9 0 0 1 1.3-9zM15.4 30.2H26v-7.8a70.3 70.3 0 0 1-9.3-.7 38.7 38.7 0 0 0-1.2 8.5zM19.4 14.8a25.8 25.8 0 0 0-1.9 4 69.4 69.4 0 0 0 8.4.6V9c-3.1.8-5.4 3.9-6.5 5.9zM16.6 41.5a70.3 70.3 0 0 1 9.3-.7v-7.6H15.4a38.6 38.6 0 0 0 1.2 8.3zM39.4 33.2H29v7.6a70.3 70.3 0 0 1 9.3.7 38.6 38.6 0 0 0 1.2-8.3zM37.3 44.5a69.4 69.4 0 0 0-8.4-.7v10.6c3.2-.8 5.4-4 6.6-6a25.8 25.8 0 0 0 1.8-4zM38.2 21.7a70.3 70.3 0 0 1-9.3.7v7.8h10.5a38.7 38.7 0 0 0-1.2-8.5zM35.5 14.8c-1.2-2-3.4-5.1-6.6-6v10.6a69.4 69.4 0 0 0 8.4-.6 25.8 25.8 0 0 0-1.8-4zM40.3 18.2a27.2 27.2 0 0 0 5.8-1.8 24.1 24.1 0 0 0-11.8-7.9 23.1 23.1 0 0 1 6 9.7zM42.5 30.2h9a24 24 0 0 0-3.6-11.3 29 29 0 0 1-6.7 2.2 41.9 41.9 0 0 1 1.3 9zM41.2 42a29 29 0 0 1 6.7 2.3 24 24 0 0 0 3.5-11.1h-9a41.9 41.9 0 0 1-1.2 8.9zM34.3 54.7a24.1 24.1 0 0 0 11.8-8 27.2 27.2 0 0 0-5.8-1.7 23.1 23.1 0 0 1-6 9.7zM8.8 16.4a27.2 27.2 0 0 0 5.7 1.8 23.1 23.1 0 0 1 6-9.7 24.1 24.1 0 0 0-7.6 4l1.5 4.2-3.6-2.5a24.1 24.1 0 0 0-2 2.3z" transform="translate(-.4)"/><path fill="#f0f1f2" d="M5.3 13.7l3.2-2.3 4.1 3.2-2.1-4.6 7.6-2.6-8.4.3-1.2-3.8-1.2 3.8H3.4L6.5 10l-1.2 3.7z"/><path fill="#187dc1" d="M25.5 49.1h4.8L18.1 34.9 49.1 0h-4L12.8 34.9l12.7 14.2z"/><path fill="#187dc1" d="M23.6 49.1L11.4 34.9 43.1 0h-4.7L6.1 34.9l12.8 14.2h4.7z"/><path fill="#187dc1" d="M32.3 49.1h4L24.2 34.9 55.9 0h-4.8L19.5 34.9l12.8 14.2z"/><path fill="#187dc1" d="M63 0h-5.2l-32 35 15 16.1H12.3c2.9-6.8 0-7.3-2-7.3-1.4 0-4.2 1.3-3.3 3.3 2.8-1.9 3.7.2 2.6 2.5l-4.6 6.2h44.4L31.3 35z" transform="translate(-.4)"/></g></svg>