<svg xmlns="http://www.w3.org/2000/svg" width="660" height="76" viewBox="0 0 660 76"><title>uspp-logo-full-uk</title><path d="M80.38,25.59l2.81-7.48h3.51l-5.49,13-.47.94A4.09,4.09,0,0,1,77,34.13H75.82V31.44a5.84,5.84,0,0,0,.82,0,2.22,2.22,0,0,0,1.17-.23,1.75,1.75,0,0,0,.7-.82l.35-1.05L73.37,18.11h3.51Zm13.44,1.87H92v6.43H88.68V18.11H92v6.31h1.52l3.86-6.31h4l-4.91,7.48,5.38,8.3H97.91Zm12.74.82v5.61h-3.27V18.11h6.08a7,7,0,0,1,3.16.58,4.68,4.68,0,0,1,2.1,1.87,5.15,5.15,0,0,1,.7,2.81,4.56,4.56,0,0,1-1.4,3.51,6.66,6.66,0,0,1-4.44,1.29Zm0-2.57h2.81a2.8,2.8,0,0,0,2-.58,2.22,2.22,0,0,0,.7-1.75,2.41,2.41,0,0,0-2.23-2.57h-3.26Zm18.23,4.91h-5.73L118,33.89h-3.51l5.84-15.79h3l6,15.79h-3.51ZM120,28h4l-2-5.85Zm14.49,5.85h-3.27V18.11h3.27Zm-2.69-18.24a1.29,1.29,0,0,1-.47,1.05,1.71,1.71,0,0,1-2.22-.12,1.29,1.29,0,0,1,0-1.81,1.64,1.64,0,0,1,2.22,0,1.29,1.29,0,0,1,.35.94Zm2.22,0a1.17,1.17,0,0,1,.47-.94,1.75,1.75,0,0,1,2.1,0,1.17,1.17,0,0,1,.47.94,1.29,1.29,0,0,1-.47,1.05,1.93,1.93,0,0,1-2.22,0A1.29,1.29,0,0,1,134,15.65Zm16.6,18.24h-3.27V27.11H141v6.78h-3.27V18.11H141v6.43h6.31V18.11h3.27Zm15.43-5.26a5.61,5.61,0,0,1-1.87,4,6.54,6.54,0,0,1-4.44,1.52,6,6,0,0,1-4.79-2.1,8.42,8.42,0,0,1-1.75-5.61v-.94a9.47,9.47,0,0,1,.82-4,6,6,0,0,1,2.34-2.69,7.13,7.13,0,0,1,7.83.58,6,6,0,0,1,2,4.09H162.9a3.27,3.27,0,0,0-.82-2.34,3.15,3.15,0,0,0-2.34-.58,2.8,2.8,0,0,0-2.34,1.17,6.55,6.55,0,0,0-.82,3.51v1.17a7,7,0,0,0,.7,3.86,2.69,2.69,0,0,0,2.45,1.17,3.15,3.15,0,0,0,2.34-.7,3.16,3.16,0,0,0,.82-2.1Zm5.61-4.79h2.57a6.66,6.66,0,0,1,4.44,1.29,4.44,4.44,0,0,1,1.64,3.62,4.68,4.68,0,0,1-1.64,3.74,6.43,6.43,0,0,1-4.32,1.4h-5.84V18.11h3.16Zm0,2.57v4.91h2.57a2.8,2.8,0,0,0,2-.7,2.34,2.34,0,0,0,.82-1.87,2.11,2.11,0,0,0-.7-1.64,2.92,2.92,0,0,0-2-.7Zm16,1.05H185.8v6.43h-3.27V18.11h3.27v6.31h1.52l3.86-6.31h4l-4.91,7.48,5.49,8.3h-3.86Zm18.93-9.35h3.27V33.89h-3.27V23.37L200.3,33.89h-3.39V18.11h3.27V28.63Zm15.78,0h3.27V33.89h-3.27V23.37l-6.31,10.52H212.8V18.11h3.27V28.63ZM223,13.9a2.92,2.92,0,0,1-1.05,2.34,4,4,0,0,1-2.69.94,4.09,4.09,0,0,1-2.69-.94,2.92,2.92,0,0,1-1.05-2.34h2.22a1.4,1.4,0,0,0,.35,1.17,2.13,2.13,0,0,0,2.34,0,1.4,1.4,0,0,0,.35-1.17Zm23.84,14.73a5.61,5.61,0,0,1-1.87,4,6.54,6.54,0,0,1-4.44,1.52,6,6,0,0,1-4.79-2.1A8.42,8.42,0,0,1,234,26.41v-.94a9.36,9.36,0,0,1,.82-4,6,6,0,0,1,2.34-2.69,7.13,7.13,0,0,1,7.83.58,6,6,0,0,1,2,4.09h-3.27a3.27,3.27,0,0,0-.82-2.34,3.15,3.15,0,0,0-2.34-.58,2.8,2.8,0,0,0-2.34,1.17,6.55,6.55,0,0,0-.82,3.51v1.17a7,7,0,0,0,.7,3.86,2.69,2.69,0,0,0,2.45,1.17,3.15,3.15,0,0,0,2.34-.7,3.16,3.16,0,0,0,.82-2.1Zm15.31-2.34a9.59,9.59,0,0,1-.82,4.21A6.2,6.2,0,0,1,259,33.19a7,7,0,0,1-7,0,6.31,6.31,0,0,1-2.34-2.69,9.36,9.36,0,0,1-.82-4.09v-.7a9.47,9.47,0,0,1,.82-4.09A6.31,6.31,0,0,1,252,18.93a7,7,0,0,1,7,0,6.2,6.2,0,0,1,2.34,2.69,9.36,9.36,0,0,1,.82,4.09Zm-3.27-.58a6.67,6.67,0,0,0-.94-3.74,3.16,3.16,0,0,0-5,0,6.55,6.55,0,0,0-.94,3.74v.82a6.78,6.78,0,0,0,.94,3.74,3.16,3.16,0,0,0,5,0,6.67,6.67,0,0,0,.94-3.74Zm24.54.82a9.59,9.59,0,0,1-.94,4,6.2,6.2,0,0,1-2.34,2.81,6.54,6.54,0,0,1-3.51.94,6.78,6.78,0,0,1-3.16-.82,6.2,6.2,0,0,1-2.34-2.34A8.19,8.19,0,0,1,270,27.58H268.2v6.31h-3.27V18.11h3.27v7H270a9,9,0,0,1,.94-3.74,6.2,6.2,0,0,1,2.34-2.57,7,7,0,0,1,6.9,0,6.2,6.2,0,0,1,2.34,2.69,9.36,9.36,0,0,1,.82,4.09ZM280,25.71a6.67,6.67,0,0,0-.94-3.74,3.16,3.16,0,0,0-5,0,6.55,6.55,0,0,0-.82,3.74v.82a6.78,6.78,0,0,0,.82,3.74,3.16,3.16,0,0,0,5,0,6.67,6.67,0,0,0,.94-3.74Zm13.67-3.16a1.64,1.64,0,0,0-.7-1.4,3,3,0,0,0-1.87-.58,2.8,2.8,0,0,0-1.75.58,1.64,1.64,0,0,0-.7,1.29H285.5a3.86,3.86,0,0,1,.7-2.34,4.68,4.68,0,0,1,2-1.52,7.24,7.24,0,0,1,2.92-.58,7,7,0,0,1,4.32,1.17A4,4,0,0,1,297,22.44a3.28,3.28,0,0,1-.58,2,4.32,4.32,0,0,1-1.87,1.4,4.09,4.09,0,0,1,2,1.4,3.74,3.74,0,0,1,.7,2.34A4,4,0,0,1,295.55,33a7.13,7.13,0,0,1-4.44,1.17,7.83,7.83,0,0,1-3-.47A4.79,4.79,0,0,1,286,32a4.09,4.09,0,0,1-.7-2.34h3.27a1.75,1.75,0,0,0,.7,1.4,3,3,0,0,0,1.87.58,3.27,3.27,0,0,0,2.1-.58,1.75,1.75,0,0,0,.7-1.52,2.11,2.11,0,0,0-.7-1.75,3,3,0,0,0-2-.47h-1.87V24.54h2q2.34,0,2.34-2.1Zm24.78,11.34h-3.27V20.68h-6.31V33.89h-3.27V18.11h12.86Zm6.31-5.61v5.61H321.5V18.11h6.19a7,7,0,0,1,3.16.58,4.68,4.68,0,0,1,2.1,1.87,5.15,5.15,0,0,1,.7,2.81A4.56,4.56,0,0,1,332,27a6.66,6.66,0,0,1-4.32,1.4Zm0-2.57h2.92a2.8,2.8,0,0,0,2-.58,2.22,2.22,0,0,0,.7-1.75,2.41,2.41,0,0,0-2.23-2.57h-3.38Zm24.31.7a9.59,9.59,0,0,1-.82,4.09,6.2,6.2,0,0,1-2.34,2.69,7,7,0,0,1-7,0,6.31,6.31,0,0,1-2.34-2.69,9.36,9.36,0,0,1-.82-4.09v-.7a9.47,9.47,0,0,1,.82-4.09,6.31,6.31,0,0,1,2.34-2.69,7,7,0,0,1,7,0,6.2,6.2,0,0,1,2.34,2.69,9.36,9.36,0,0,1,.82,4.09Zm-3.27-.7a6.67,6.67,0,0,0-.94-3.86,3.16,3.16,0,0,0-5,0,6.55,6.55,0,0,0-.94,3.74v.82a6.78,6.78,0,0,0,.94,3.74,3.16,3.16,0,0,0,5,0,6.67,6.67,0,0,0,.94-3.74Zm10.05-7.6L360,29.57l4-11.46h4.32V33.89H365V29.57l.35-7.48L361,33.89h-2.22L354.7,22.2l.35,7.37v4.33h-3.27V18.11Zm24.9,0H384V33.89h-3.27V23.37l-6.31,10.52h-3.39V18.11h3.27V28.63Zm18.7,10.52a5.61,5.61,0,0,1-1.87,4,6.54,6.54,0,0,1-4.44,1.52,6,6,0,0,1-4.79-2.1,8.42,8.42,0,0,1-1.75-5.61v-.94a9.47,9.47,0,0,1,.82-4,6,6,0,0,1,2.34-2.69,7.13,7.13,0,0,1,7.83.47,6,6,0,0,1,2,4.21H396.3a3.27,3.27,0,0,0-.82-2.34,3.15,3.15,0,0,0-2.34-.58,2.8,2.8,0,0,0-2.34,1.17,6.55,6.55,0,0,0-.82,3.51v1.17a7,7,0,0,0,.7,3.86,2.69,2.69,0,0,0,2.45,1.17,3.15,3.15,0,0,0,2.34-.7,3.16,3.16,0,0,0,.82-2.1Zm15.19-10.52V33.89h-3.27V20.68h-4.09l-.23,5.61a17.43,17.43,0,0,1-.7,4.44,4.68,4.68,0,0,1-1.64,2.34,5,5,0,0,1-2.92.82H401V31.32h.47a2.1,2.1,0,0,0,1.75-1.4,14.5,14.5,0,0,0,.7-4.56l.23-7.25Zm16,8.19a9.48,9.48,0,0,1-.82,4.21,6.2,6.2,0,0,1-2.34,2.69,7,7,0,0,1-7,0,6.31,6.31,0,0,1-2.34-2.69,9.36,9.36,0,0,1-.82-4.09v-.7a9.47,9.47,0,0,1,.82-4.09,6.31,6.31,0,0,1,2.34-2.69,7,7,0,0,1,7,0,6.2,6.2,0,0,1,2.34,2.69,9.36,9.36,0,0,1,.82,4.09Zm-3.27-.7a6.67,6.67,0,0,0-.94-3.74,3.16,3.16,0,0,0-5,0,6.55,6.55,0,0,0-.94,3.74v.82a6.78,6.78,0,0,0,.94,3.74,3.16,3.16,0,0,0,5,0,6.78,6.78,0,0,0,.94-3.74Zm5.84,8.3V18.11h5.61a7.24,7.24,0,0,1,4.32,1.17,3.74,3.74,0,0,1,1.52,3.16,3.32,3.32,0,0,1-2.34,3.27,3.27,3.27,0,0,1,1.87,1.17,3.51,3.51,0,0,1,.7,2.34,4.21,4.21,0,0,1-1.52,3.51,6.54,6.54,0,0,1-4.09,1.17Zm3.27-6.9v4.33h2.81a2.69,2.69,0,0,0,1.75-.58,1.87,1.87,0,0,0,.7-1.52A2,2,0,0,0,439.43,27Zm0-2.34h2.34q2.57,0,2.57-2a1.75,1.75,0,0,0-.7-1.52,3.27,3.27,0,0,0-2-.47h-2.22Zm11-6.55h3.27V31.32h6.31V18.11h3.27V31.32h2.22l-.23,6.43h-3V33.89H447.61Zm20.69,15.79H465V18.11h3.16Zm3.27,0V18.11H477a7.24,7.24,0,0,1,4.44,1.17,3.7,3.7,0,0,1-.82,6.43,3.27,3.27,0,0,1,1.87,1.17,3.51,3.51,0,0,1,.82,2.34,4.21,4.21,0,0,1-1.4,3.51,6.54,6.54,0,0,1-4.21,1.17Zm3.27-6.9v4.33h2.81a2.69,2.69,0,0,0,1.75-.58,1.87,1.87,0,0,0,.7-1.52A2,2,0,0,0,477.65,27Zm0-2.34h2.34q2.57,0,2.57-2a1.75,1.75,0,0,0-.7-1.52,3.27,3.27,0,0,0-2-.47h-2.22Zm20.34,9.24H491.8V18.11h3.27Zm21.86,0h-3.27V20.68h-6.31V33.89h-3.27V18.11h12.86Zm6.55,0H520.2V18.11h3.27Zm18.12,3.86h-2.92V33.89h-9.58v3.86h-3l-.23-6.43H527A5,5,0,0,0,528.5,29a16.14,16.14,0,0,0,.7-3.86l.47-7h10.4V31.32h1.75Zm-10.87-6.43h6.08V20.8h-4l-.35,4.09a14,14,0,0,1-1.75,6.43Zm25.95,2.57h-3.27V20.68h-6.31V33.89h-3.27V18.11h12.86ZM563,28.28v5.61h-3.16V18.11h6.08a7,7,0,0,1,3.16.58,4.68,4.68,0,0,1,2.1,1.87,5.15,5.15,0,0,1,.7,2.81A4.56,4.56,0,0,1,570.22,27a6.66,6.66,0,0,1-4.32,1.4Zm0-2.57h2.92a2.8,2.8,0,0,0,2-.58,2.22,2.22,0,0,0,.7-1.75,2.41,2.41,0,0,0-2.23-2.57h-3.26Zm20.8-7.6h3.27V33.89h-3.27V23.37l-6.31,10.52H574.2V18.11h3.27V28.63Zm18.7,10.52a5.61,5.61,0,0,1-1.87,4,6.54,6.54,0,0,1-4.44,1.52,6,6,0,0,1-4.68-2.1,8.19,8.19,0,0,1-1.87-5.38V25.48a9.48,9.48,0,0,1,.82-4.09,6,6,0,0,1,2.34-2.57,7.13,7.13,0,0,1,7.83.47,6,6,0,0,1,1.87,4.21h-3.27a3.39,3.39,0,0,0-.82-2.34,3,3,0,0,0-2.34-.58,2.8,2.8,0,0,0-2.34.94,5.61,5.61,0,0,0-.82,3.16h4.91v2.69H592.9a6,6,0,0,0,.82,3.16,2.8,2.8,0,0,0,2.34,1.05,3.15,3.15,0,0,0,2.34-.7,3.16,3.16,0,0,0,.82-2.22Zm6.78-10.52,4,11.46,4.09-11.46h4.21V33.89h-3.27V29.57l.35-7.48L614.4,33.89h-2.34L607.86,22.2l.35,7.37v4.33h-3.27V18.11Zm15.19,0h3.27V31.32H634V18.11h3.27V31.32h2.1l-.12,6.43h-3V33.89H624.57Zm20.69,15.79h-3.27V18.11h3.27Zm3.27,0V18.11h5.49a7.24,7.24,0,0,1,4.32,1.17,3.74,3.74,0,0,1,1.52,3.16,3.32,3.32,0,0,1-2.34,3.27,3.27,3.27,0,0,1,1.87,1.17,3.51,3.51,0,0,1,.7,2.34,4.21,4.21,0,0,1-1.4,3.51,6.54,6.54,0,0,1-4.21,1.17Zm3.27-6.9v4.33h2.81a2.69,2.69,0,0,0,1.75-.58,1.87,1.87,0,0,0,.7-1.52A2,2,0,0,0,654.61,27Zm0-2.34H654q2.57,0,2.57-2a1.75,1.75,0,0,0-.7-1.52,3.27,3.27,0,0,0-2-.47h-2.22Z" transform="translate(0)" fill="#187dc1"/><path d="M73.37,59V49h3.4a4.2,4.2,0,0,1,2.6.7,2.4,2.4,0,0,1,.9,2,2.1,2.1,0,0,1-.4,1.3,2.4,2.4,0,0,1-1,.8,2.2,2.2,0,0,1,1.2.9,2.4,2.4,0,0,1,.3,1.3,2.6,2.6,0,0,1-.9,2.2,3.9,3.9,0,0,1-2.6.7Zm1.7-4.5v3.1h2a1.9,1.9,0,0,0,1.2-.4,1.6,1.6,0,0,0-1.1-2.7Zm0-1.3h1.7a2,2,0,0,0,1.3-.3,1.5,1.5,0,0,0,0-2.1,2.1,2.1,0,0,0-1.3-.4h-1.7ZM86.87,59a2.6,2.6,0,0,1-.2-.7,2.8,2.8,0,0,1-3.7.2,2.3,2.3,0,0,1-.06-3.25l.16-.15a4.3,4.3,0,0,1,2.6-.6h1V54a1.22,1.22,0,0,0-1.4-1.3,1.4,1.4,0,0,0-.9.3.9.9,0,0,0-.4.7h-1.6a1.8,1.8,0,0,1,.4-1.1,2.7,2.7,0,0,1,1-.8,3.9,3.9,0,0,1,1.6-.3,3,3,0,0,1,2.1.6,2.3,2.3,0,0,1,.9,1.9v3.3a3.8,3.8,0,0,0,.3,1.6V59Zm-1.8-1.2a1.9,1.9,0,0,0,1-.2,1.6,1.6,0,0,0,.6-.7V55.5h-1a2.5,2.5,0,0,0-1.3.4,1,1,0,0,0-.2,1.6A1.3,1.3,0,0,0,85.07,57.8Zm7.1-6.2v6h2.3v-6h1.7v6h2.3v-6h1.7V59h-9.6V51.6Zm20.4,7.4h-1.7V56H108v3h-1.6V51.6h1.7v3h2.8v-3h1.7Zm6.6,0a2.6,2.6,0,0,1-.2-.7,2.8,2.8,0,0,1-3.8.2,2.22,2.22,0,0,1,.2-3.4,4.3,4.3,0,0,1,2.5-.6h1V54a1.1,1.1,0,0,0-1.3-1.3,1.4,1.4,0,0,0-1,.3.9.9,0,0,0-.3.7h-1.7a1.8,1.8,0,0,1,.4-1,2.7,2.7,0,0,1,1.1-1,3.9,3.9,0,0,1,1.6-.2,3,3,0,0,1,2,.6,2.3,2.3,0,0,1,.8,1.9v3.3a3.8,3.8,0,0,0,.3,1.6V59Zm-1.9-1.2a1.9,1.9,0,0,0,1-.2,1.6,1.6,0,0,0,.6-.7V55.5H118a2.4,2.4,0,0,0-1.4.4,1.09,1.09,0,0,0-.16,1.53l.06.07a1.3,1.3,0,0,0,.9.3Zm5.5-.1a4.3,4.3,0,0,0,.9-1.5,6.4,6.4,0,0,0,.3-1.8V51.6h5.2v6h1v3.6h-1.6V59h-4.8v2.2h-1.7V57.7Zm2,0h2.8V53h-1.9v1.4a6,6,0,0,1-1,3.3Zm8.8,1.3H132V51.6h1.6Zm-1.7-9.3a.9.9,0,0,1,.2-.7,1,1,0,1,1,1.4,1.3,1.1,1.1,0,0,1-1.4,0,.9.9,0,0,1-.3-.6Zm8.6,1.9h1.6V59h-1.6V54l-3,5h-1.6V51.6h1.7v5Zm.8-2.8a1.8,1.8,0,0,1-.6,1.4,2.7,2.7,0,0,1-3.2,0,1.8,1.8,0,0,1-.6-1.4h1.2a1,1,0,1,0,1.9,0Zm9.3,10.2h-1.7V56H146v3h-1.6V51.6h1.7v3h2.8v-3h1.7Zm6.8-7.4H159V59h-1.6V54l-3,5h-1.6V51.6h1.7v5Zm8.5,0h1.6V59h-1.6V54l-3,5h-1.5V51.6H163v5Zm.7-2.8a1.8,1.8,0,0,1-.6,1.4,2.7,2.7,0,0,1-3.2,0,1.8,1.8,0,0,1-.6-1.4h1.3a1,1,0,1,0,1.9,0ZM179.87,59h-1.7V53h-2.9v6h-1.6V51.6h6.2Zm6.6,0a2.6,2.6,0,0,1-.2-.7,2.8,2.8,0,0,1-3.8.2,2.15,2.15,0,0,1,.3-3.4,4.3,4.3,0,0,1,2.4-.6h1V54a1.1,1.1,0,0,0-1.3-1.3,1.4,1.4,0,0,0-1,.3.9.9,0,0,0-.3.7H182a1.8,1.8,0,0,1,.4-1,2.7,2.7,0,0,1,1-1,3.9,3.9,0,0,1,1.6-.2,3,3,0,0,1,2,.6,2.3,2.3,0,0,1,.9,1.9v3.3a3.8,3.8,0,0,0,.2,1.6V59Zm-1.8-1.2a1.9,1.9,0,0,0,.9-.2,1.6,1.6,0,0,0,.6-.7V55.5h-.9a2.5,2.5,0,0,0-1.4.4,1.09,1.09,0,0,0-.16,1.53l.06.07a1.3,1.3,0,0,0,.8.3Zm11.8-2.4a4.4,4.4,0,0,1-.7,2.7,2.7,2.7,0,0,1-3.8.38h0l-.2-.18v3.5h-1.7V51.6h1.5v.8a2.4,2.4,0,0,1,2-1,2.5,2.5,0,0,1,2.2,1,4.5,4.5,0,0,1,.8,2.9Zm-1.6-.2a3,3,0,0,0-.5-1.7,1.4,1.4,0,0,0-1.2-.7,1.5,1.5,0,0,0-1.5.9v3.2a1.5,1.5,0,0,0,1.5.9,1.4,1.4,0,0,0,1.2-.6A3.4,3.4,0,0,0,194.87,55.2Zm9-2.3h-2.5V59h-1.7V53h-2.3V51.6h6.5Zm7.8,6.1H210V56h-2.9v3h-1.6V51.6h1.6v3h3v-3h1.6Zm5.4.1a3.5,3.5,0,0,1-2.5-1,3.6,3.6,0,0,1-1-2.6v-.2a4.4,4.4,0,0,1,.4-2,3.3,3.3,0,0,1,1.2-1.4,3.2,3.2,0,0,1,1.7-.5,2.9,2.9,0,0,1,2.3,1,4,4,0,0,1,.9,2.8v.6h-4.9a2.2,2.2,0,0,0,.6,1.5,1.9,1.9,0,0,0,1.4.5,2.3,2.3,0,0,0,1.9-1l.9,1a3,3,0,0,1-1.2,1,3.7,3.7,0,0,1-1.7.3Zm-.2-6.3a1.4,1.4,0,0,0-1,.5,2.5,2.5,0,0,0-.6,1.3h3.2v-.1a2,2,0,0,0-.5-1.3,1.4,1.4,0,0,0-1-.4Zm11.4,2.6a4.4,4.4,0,0,1-.8,2.7,2.7,2.7,0,0,1-3.8.38h0l-.2-.18v3.5h-1.7V51.6h1.6v.8a2.4,2.4,0,0,1,2-1,2.5,2.5,0,0,1,2.2,1,4.5,4.5,0,0,1,.7,2.9Zm-1.7-.2a3,3,0,0,0-.4-1.7,1.4,1.4,0,0,0-1.3-.7,1.5,1.5,0,0,0-1.4.9v3.2a1.5,1.5,0,0,0,1.4,1,1.4,1.4,0,0,0,1.3-.7A3.4,3.4,0,0,0,226.57,55.2Z" transform="translate(0)" fill="#adadad"/><path d="M7.7,60.4s-1.6,2.4-3.8,2.4S0,61.8,0,60.4V73.7C0,75,1.8,76,4,76s3.7-1,3.7-2.3c.1,1.3,1.8,2.3,4,2.3s3.9-1,3.9-2.3c0,1.3,1.7,2.3,3.8,2.3s3.9-1,3.9-2.3C23.3,75,25,76,27.1,76S31,75,31,73.7C31,75,32.7,76,34.9,76s3.8-2.3,3.8-2.3S40.5,76,42.6,76s3.9-2.3,3.9-2.3S48.2,76,50.3,76s3.9-1,3.9-2.3V60.4c0,1.3-1.7,2.4-3.9,2.4s-3.8-2.4-3.8-2.4-1.8,2.4-3.9,2.4-3.9-2.4-3.9-2.4-1.7,2.4-3.9,2.4S31,60.4,31,60.4s-1.8,2.4-4,2.4-3.8-2.4-3.8-2.4-1.7,2.4-3.9,2.4-3.8-2.4-3.8-2.4-1.7,2.4-3.8,2.4S7.7,60.4,7.7,60.4Z" transform="translate(0)" fill="#157ac3"/><path d="M14.6,64.3h2.7v.2a1.1,1.1,0,0,0-.7.3,5.1,5.1,0,0,0-.7,1.2l-2.6,5.1a4,4,0,0,1-1,1.5,2,2,0,0,1-1,.3,1.3,1.3,0,0,1-1-.4,1.2,1.2,0,0,1-.4-.8.71.71,0,0,1,.61-.8h.19a.6.6,0,0,1,.5.1,1.2,1.2,0,0,1,.2.6q.1.6.5.6t.8-.8l.1-.3-3-5.4a2.9,2.9,0,0,0-.6-1,1.6,1.6,0,0,0-.9-.1v-.3h4.2v.2h-.2q-.7,0-.7.4a1,1,0,0,0,.2.3l2,3.8,1.6-3a2.4,2.4,0,0,0,.3-1,.4.4,0,0,0-.2-.3,2.2,2.2,0,0,0-1-.2Zm11.3-.2V67h-.3a3,3,0,0,0-1-1.7,2.6,2.6,0,0,0-1.6-.6,2.5,2.5,0,0,0-1.5.4,2.6,2.6,0,0,0-1,1.2,5.3,5.3,0,0,0-.4,2,7,7,0,0,0,.3,2,2.7,2.7,0,0,0,1,1.5,2.5,2.5,0,0,0,1.5.4,3,3,0,0,0,1.4-.3,5,5,0,0,0,1.4-1.2v.8a4.6,4.6,0,0,1-1.5,1,4.4,4.4,0,0,1-1.7.3,5.1,5.1,0,0,1-2.4-.5,3.8,3.8,0,0,1-1.6-1.5,4.3,4.3,0,0,1-.6-2.2,4.5,4.5,0,0,1,2.3-3.9,4.6,4.6,0,0,1,2.3-.6,5.1,5.1,0,0,1,1.9.4,2.9,2.9,0,0,0,.7.2.5.5,0,0,0,.3-.1.8.8,0,0,0,.2-.5Zm5.8,8.6v-.3H32a1.16,1.16,0,0,0,.8-.2,2.1,2.1,0,0,0,.1-1V64.8h-3v6.4a1.6,1.6,0,0,0,.3,1,1,1,0,0,0,.7.2h.3v.2H26.7v-.2H27a1,1,0,0,0,.7-.2,1.8,1.8,0,0,0,.2-1V65.7a1.9,1.9,0,0,0-.2-1,1,1,0,0,0-.7-.2h-.3v-.2H36v.2h-.2a1,1,0,0,0-.8.3,1.7,1.7,0,0,0-.1,1v5.5a1.6,1.6,0,0,0,.2,1,1.1,1.1,0,0,0,.7.2H36v.2Zm9.9,0v-.3h.2a1.16,1.16,0,0,0,.8-.2,2.1,2.1,0,0,0,.1-1V64.8h-3v6.4a1.6,1.6,0,0,0,.3,1,1,1,0,0,0,.7.2H41v.2H36.6v-.2h.3a1,1,0,0,0,.7-.2,1.8,1.8,0,0,0,.2-1V65.7a1.9,1.9,0,0,0-.2-1,1,1,0,0,0-.7-.2h-.3v-.2h9.3v.2h-.2a1,1,0,0,0-.8.3,1.7,1.7,0,0,0-.2,1v5.5a1.6,1.6,0,0,0,.3,1,1.1,1.1,0,0,0,.7.2h.2v.2Z" transform="translate(0)" fill="#fffffe"/><path d="M19.1,48.5c1.1,2,3.4,5,6.5,5.9V43.8a69.4,69.4,0,0,0-8.3.7A25.8,25.8,0,0,0,19.1,48.5ZM14.2,45a27.2,27.2,0,0,0-5.8,1.8,24.1,24.1,0,0,0,11.9,7.9,23.1,23.1,0,0,1-6-9.7ZM12.1,33.2h-9a24,24,0,0,0,3.6,11,29,29,0,0,1,6.7-2.1,41.8,41.8,0,0,1-1.3-9Zm1.3-12.1A29,29,0,0,1,6.7,19,24,24,0,0,0,3.1,30.3h9a41.9,41.9,0,0,1,1.3-9Zm1.7,9.1H25.7V22.4a70.3,70.3,0,0,1-9.3-.7,38.7,38.7,0,0,0-1.2,8.5Zm4-15.4a25.8,25.8,0,0,0-1.9,4,69.4,69.4,0,0,0,8.4.6V9c-3.1.8-5.4,3.9-6.5,5.9ZM16.3,41.5a70.3,70.3,0,0,1,9.3-.7V33.2H15.1A38.6,38.6,0,0,0,16.3,41.5Zm22.8-8.3H28.7v7.6a70.3,70.3,0,0,1,9.3.7,38.6,38.6,0,0,0,1.2-8.3ZM37,44.5a69.4,69.4,0,0,0-8.4-.7V54.4c3.2-.8,5.4-4,6.6-6a25.8,25.8,0,0,0,1.8-4Zm.9-22.8a70.3,70.3,0,0,1-9.3.7v7.8H39.1A38.7,38.7,0,0,0,37.9,21.7Zm-2.7-6.9c-1.2-2-3.4-5.1-6.6-6V19.4a69.4,69.4,0,0,0,8.4-.6A25.8,25.8,0,0,0,35.2,14.8ZM40,18.2a27.2,27.2,0,0,0,5.8-1.8A24.1,24.1,0,0,0,34,8.5,23.1,23.1,0,0,1,40,18.2Zm2.2,12h9a24,24,0,0,0-3.6-11.3,29,29,0,0,1-6.7,2.2,41.9,41.9,0,0,1,1.3,9ZM40.9,42a29,29,0,0,1,6.7,2.3,24,24,0,0,0,3.5-11.1h-9a41.9,41.9,0,0,1-1.2,8.9ZM34,54.7a24.1,24.1,0,0,0,11.8-8A27.2,27.2,0,0,0,40,45,23.1,23.1,0,0,1,34,54.7ZM8.5,16.4a27.2,27.2,0,0,0,5.7,1.8,23.1,23.1,0,0,1,6-9.7,24.1,24.1,0,0,0-7.6,4l1.5,4.2-3.6-2.5a24.1,24.1,0,0,0-2,2.3Z" transform="translate(0)" fill="#dadada"/><path d="M5.4,13.7l3.2-2.3,4.1,3.2L10.6,10l7.6-2.6-8.4.3L8.6,3.9,7.4,7.7H3.5L6.6,10Z" transform="translate(0)" fill="#dadada"/><path d="M25.6,49.1h4.8L18.2,34.9,49.2,0h-4L12.9,34.9Z" transform="translate(0)" fill="#187dc1"/><path d="M23.7,49.1,11.5,34.9,43.2,0H38.5L6.2,34.9,19,49.1Z" transform="translate(0)" fill="#187dc1"/><path d="M32.4,49.1h4L24.3,34.9,56,0H51.2L19.6,34.9Z" transform="translate(0)" fill="#187dc1"/><path d="M62.7,0H57.5l-32,35,15,16.1H12c2.9-6.8,0-7.3-2-7.3-1.4,0-4.2,1.3-3.3,3.3,2.8-1.9,3.7.2,2.6,2.5L4.7,55.8H49.1L31,35Z" transform="translate(0)" fill="#187dc1"/></svg>