<svg xmlns="http://www.w3.org/2000/svg" width="54" height="52" viewBox="0 0 54 52"><path fill="#fbfbfb" d="M50.19 52a3.74 3.74 0 0 0 3.74-3.73V20.2l.06-.06-.06-.06v-.89a3.75 3.75 0 0 0-1.65-3.1L29.51.66a3.63 3.63 0 0 0-4.19 0L1.71 16.09A3.76 3.76 0 0 0 0 19.25v29A3.74 3.74 0 0 0 3.74 52zm1.21-5.25l-16.5-14 16.5-10.84zM3.11 18.18l23.6-15.43a1.38 1.38 0 0 1 1.4 0l22.78 15.43a1.33 1.33 0 0 1 .51.7L32.87 30.95l-3-2.59a3.75 3.75 0 0 0-4.87-.07L21.7 31l-19-12.45a1.08 1.08 0 0 1 .41-.37zm-.57 3.29l17.07 11.25-17.07 14.1zm24 8.79a1.25 1.25 0 0 1 1.59 0l22.51 19.08a1.62 1.62 0 0 1-.44.13H3.74a1.24 1.24 0 0 1-.44-.06z"/></svg>