<svg xmlns="http://www.w3.org/2000/svg" width="32" height="32" viewBox="0 0 32 32"><title>iso-icon</title><rect width="32" height="32" fill="#1a4b93"/><path d="M25.21,21.51A6.49,6.49,0,0,1,20.91,20c-1.75-1.71-1.38-4.49-1.14-5.6a4,4,0,0,1,2-2.82,7,7,0,0,1,3.34-.8,7.1,7.1,0,0,1,3.77,1,3.94,3.94,0,0,1,1.5,1.8,7,7,0,0,1-.52,6A4.46,4.46,0,0,1,28.1,21a3.17,3.17,0,0,1-.72.25,8.1,8.1,0,0,1-2.17.3Zm-.12-8.45a1.79,1.79,0,0,0-1.64.94,9.07,9.07,0,0,0-.2,3.05v.21a2.05,2.05,0,0,0,.7,1.62,2.71,2.71,0,0,0,1.31.33,2.38,2.38,0,0,0,1-.19,1.4,1.4,0,0,0,.84-1,11.56,11.56,0,0,0,.1-2.1c0-.27,0-.53,0-.78l0-.28a2.23,2.23,0,0,0-.28-1.08,2.08,2.08,0,0,0-1.76-.68h0Z" fill="#fff"/><path d="M1.36,21.27c0-.72,0-1.43,0-2.17l1.56,0,0-.4V13.19l-.18,0c-.35,0-.7,0-1,0H1.38c0-.72,0-1.52,0-2.23h.79l5.77,0c0,.67,0,1.42,0,2.24H6.47l-.09.14,0,.11,0,5.63.18,0a7.14,7.14,0,0,0,.85,0h.58v2.17Z" fill="#fff"/><path d="M25.7,22.63a12.14,12.14,0,0,1-2.42,2.58s-.13,0-.16,0c-.4-.25-.82-.45-1.2-.7a12.91,12.91,0,0,0,1.38-1.88H22.8a11,11,0,0,1-1.33,1.69,17,17,0,0,0-2-.72l-.08-.06a7.8,7.8,0,0,0,.38-.92h-.43l-.43.84A20.33,20.33,0,0,0,16,23.08c0-.14,0-.34,0-.47h-.41c0,.19,0,.33,0,.48a18.28,18.28,0,0,0-2.85.34l-.43-.83a1.35,1.35,0,0,0-.44,0l.4.92,0,0a20.12,20.12,0,0,0-2.09.73l-.06,0a12.4,12.4,0,0,1-1.22-1.54c-.08-.27-.4-.11-.57-.14a13.44,13.44,0,0,0,1.39,1.91c-.43.25-.85.53-1.3.73a11.4,11.4,0,0,1-2.5-2.63,1.84,1.84,0,0,0-.51,0A12.4,12.4,0,0,0,10,26.88a0,0,0,0,1,0,0s0,0,0,0a13.08,13.08,0,0,0,4,1.23,12.45,12.45,0,0,0,12.18-5.5A2.57,2.57,0,0,0,25.7,22.63ZM19.1,24l0,0a8.84,8.84,0,0,1,1.93.67,9.92,9.92,0,0,1-1.76,1.49c-.36.22-.73.45-1.11.64l-.68-.29,0-.11A18.65,18.65,0,0,0,19.1,24ZM16,23.57a12.39,12.39,0,0,1,2.64.31l0,0A15.91,15.91,0,0,1,17,26.33a4.45,4.45,0,0,1-.79-.09l-.27,0C16,25.29,15.94,24.48,16,23.57Zm-3.05.28a13.74,13.74,0,0,1,2.56-.28l0,2.63c-.33.08-.7.08-1,.16a13.9,13.9,0,0,1-1.64-2.44Zm-2.55.84A10.39,10.39,0,0,1,12.32,24l.06,0A24.19,24.19,0,0,0,14,26.49c-.22.13-.49.2-.71.33a10.66,10.66,0,0,1-2.88-2.08Zm2,2.66a11.23,11.23,0,0,1-3.7-1.74v0A9.05,9.05,0,0,1,9.9,24.9a16.11,16.11,0,0,0,2.85,2.19A1.25,1.25,0,0,1,12.43,27.34Zm5.87.2a12,12,0,0,1-5.22,0c0-.08.08-.09.13-.14a4.94,4.94,0,0,1,5.2.08C18.46,27.54,18.33,27.51,18.3,27.54Zm1.52-.43-.74.23a1.76,1.76,0,0,1-.35-.25l0,0a14.08,14.08,0,0,0,2.8-2.16,6.24,6.24,0,0,1,1.22.67A10.68,10.68,0,0,1,19.82,27.11Z" fill="#fff"/><path d="M5.72,9.5A14.48,14.48,0,0,1,7,8a8.42,8.42,0,0,1,1.23-1c.41.26.87.48,1.27.73A13.71,13.71,0,0,0,8.14,9.52a.94.94,0,0,0,.48,0A12,12,0,0,1,9.95,7.86c.68.25,1.34.51,2,.7l.06.06-.4.9a1.42,1.42,0,0,0,.46,0c.14-.26.25-.56.41-.82A15.48,15.48,0,0,0,15.39,9c.13.11,0,.34.08.48h.43c0-.15,0-.33,0-.46a15.18,15.18,0,0,0,2.77-.36l.08,0,.43.81a1,1,0,0,0,.44,0l-.4-.9,0,0a17.31,17.31,0,0,0,2.1-.74,14.54,14.54,0,0,1,1.36,1.71,1.47,1.47,0,0,0,.47,0,6.33,6.33,0,0,0-.68-1,6.77,6.77,0,0,0-.7-.84V7.59L23,7l.16-.06a11.53,11.53,0,0,1,2.5,2.59c.19,0,.35.06.51,0A12.52,12.52,0,0,0,16.73,4l0,0,0,0a7.25,7.25,0,0,0-1.41,0,3.72,3.72,0,0,0-.59,0A12.4,12.4,0,0,0,5.22,9.52,1.79,1.79,0,0,0,5.72,9.5Zm6.56-1.37h-.06a12.67,12.67,0,0,1-1.88-.64l0-.09a12.43,12.43,0,0,1,2.8-2c.24.09.47.17.71.28l0,.12A19.9,19.9,0,0,0,12.29,8.14Zm3.15.42a5.72,5.72,0,0,1-1.28,0,8.48,8.48,0,0,1-1.39-.25,13.85,13.85,0,0,1,1.65-2.44l1,.14C15.47,6.77,15.43,7.7,15.43,8.56Zm.49,0c0-.83,0-1.74,0-2.6l1-.14a13.4,13.4,0,0,1,1.63,2.42A11.22,11.22,0,0,1,15.92,8.57Zm5-1.09A10.33,10.33,0,0,1,19,8.14a26.31,26.31,0,0,0-1.63-2.44c.22-.12.49-.21.73-.34A11.17,11.17,0,0,1,21,7.43Zm-2-2.66a11.28,11.28,0,0,1,3.72,1.74l0,.06-1.09.61h-.08a13.78,13.78,0,0,0-2.81-2.14C18.68,5,18.83,4.9,18.95,4.83Zm-.63-.16v0a4.83,4.83,0,0,1-5.06.17c-.08-.06-.24-.09-.25-.2A11.84,11.84,0,0,1,18.31,4.67ZM8.67,6.6A11.36,11.36,0,0,1,11.94,5s.08-.09.14-.09v0c.13,0,.22-.11.33,0s.21.14.29.22A16,16,0,0,0,9.87,7.28a5.2,5.2,0,0,1-1.2-.65Z" fill="#fff"/><path d="M14.86,21.5a7.38,7.38,0,0,1-2.77-.56l-.26-.14-.54-.28L11,20.4l0,.85H9c0-1,0-2.17,0-3.55h1.84l.1.15a2.32,2.32,0,0,0,.18.27,4.19,4.19,0,0,0,3.07,1.27,5,5,0,0,0,1.31-.18c.16-.08.4-.21.4-.47s-.2-.46-.42-.56c-.68-.23-1.35-.43-2-.62s-1.54-.45-2.3-.72A3.27,3.27,0,0,1,9,14.67a2.93,2.93,0,0,1,1-3.06,5,5,0,0,1,2.91-.83,7,7,0,0,1,2.65.52l.9.48.08-.2a1.13,1.13,0,0,0,.06-.47v0l1.15,0h.75l0,.84c0,.82,0,1.61,0,2.46h-2a4.08,4.08,0,0,0-3-1.54l-.29,0-.4,0a1.1,1.1,0,0,0-1,.47.62.62,0,0,0,.22.67l.32.17,3.86,1.12a3.53,3.53,0,0,1,2.58,2.68A3,3,0,0,1,17.31,21,5.37,5.37,0,0,1,14.86,21.5Z" fill="#fff"/></svg>