<svg xmlns="http://www.w3.org/2000/svg" xmlns:xlink="http://www.w3.org/1999/xlink" style="display:none"><symbol id="arrow-next"><path d="M9 10l-6.64 9.57a1 1 0 0 1-.81.43H1a1 1 0 0 1-.81-1.57L6 10 .18 1.57A1 1 0 0 1 1 0h.55a1 1 0 0 1 .81.43z"/></symbol><symbol id="arrow-prev"><path d="M6.64.43A1 1 0 0 1 7.45 0H8a1 1 0 0 1 .81 1.57L3 10l5.85 8.43A1 1 0 0 1 8 20h-.55a1 1 0 0 1-.81-.43L0 10z"/></symbol><symbol id="arrow-up"><path d="M10 9L.43 2.36A1 1 0 0 1 0 1.55V1A1 1 0 0 1 1.57.18L10 6 18.43.18A1 1 0 0 1 20 1v.55a1 1 0 0 1-.43.81z"/></symbol><symbol id="facebook-icon"><path fill="#475993" d="M26.89 0H3.11A3.16 3.16 0 0 0 0 3.21v23.58A3.16 3.16 0 0 0 3.11 30h11.44V20h-2.67a.62.62 0 0 1-.63-.61v-3.23a.62.62 0 0 1 .63-.62h2.68v-3.11c0-3.62 2.28-5.59 5.62-5.59h2.72a.62.62 0 0 1 .63.61v2.72a.62.62 0 0 1-.63.61h-1.68c-1.81 0-2.16.83-2.16 2.06v2.7h4a.62.62 0 0 1 .63.69l-.4 3.23a.63.63 0 0 1-.63.54h-3.59v10h7.83a3.16 3.16 0 0 0 3.1-3.21V3.21A3.16 3.16 0 0 0 26.89 0z"/></symbol><symbol id="search-icon"><path d="M16.4 14.87l7.3 7.3a1 1 0 0 1 0 1.44l-.09.09a1 1 0 0 1-1.44 0l-7.3-7.3a9.19 9.19 0 1 1 1.53-1.53zm-7.21 1.34a7 7 0 1 0-7-7 7 7 0 0 0 7 7z"/></symbol><symbol id="youtube-icon"><path fill="#f61c0d" d="M33.75 0H7.21C2 0 0 3.95 0 8.81V21.2C0 26.06 2 30 7.21 30h26.54C39 30 41 26.06 41 21.2V8.81C41 3.95 39 0 33.75 0zm-6.84 15.6l-12.42 5.53a.5.5 0 0 1-.71-.42V9.3a.5.5 0 0 1 .72-.42l12.41 5.87a.45.45 0 0 1 0 .85z"/></symbol></svg>